# AST/ASF file generated using VICON BodyLanguage
# -----------------------------------------------
:version 1.10
:name VICON
:units
  mass 1.0
  length 0.45
  angle deg
:documentation
   .ast/.asf automatically generated from VICON data using
   VICON BodyBuilder and BodyLanguage model FoxedUp or BRILLIANT.MOD
:root
   order TX TY TZ RX RY RZ
   axis XYZ
   position 0 0 0  
   orientation 0 0 0 
:bonedata
  begin
     id 1 
     name lhipjoint
     direction 0.603808 -0.713975 0.35448 
     length 2.2025 
     axis 0 0 0  XYZ
  end
  begin
     id 2 
     name lfemur
     direction 0.34202 -0.939693 0  
     length 6.55877  
     axis 0 0 20  XYZ
    dof rx ry rz
    limits (-160.0 20.0)
           (-70.0 70.0)
           (-60.0 70.0)
  end
  begin
     id 3 
     name ltibia
     direction 0.34202 -0.939693 0   
     length 6.80302   
     axis 0 0 20   XYZ
    dof rx
    limits (-10.0 170.0)
  end
  begin
     id 4 
     name lfoot
     direction 0.091848 -0.25235 0.963267   
     length 2.03446   
     axis -90 7.62852e-016 20   XYZ
    dof rx rz
    limits (-45.0 90.0)
           (-70.0 20.0)
  end
  begin
     id 5 
     name ltoes
     direction 1.53608e-011 -4.21925e-011 1   
     length 1.02033   
     axis -90 7.62852e-016 20   XYZ
    dof rx
    limits (-90.0 20.0)
  end
  begin
     id 6 
     name rhipjoint
     direction -0.587285 -0.724947 0.359928   
     length 2.16916  
     axis 0 0 0  XYZ 
  end
  begin
     id 7 
     name rfemur
     direction -0.34202 -0.939693 0   
     length 6.43173   
     axis 0 0 -20   XYZ
    dof rx ry rz
    limits (-160.0 20.0)
           (-70.0 70.0)
           (-70.0 60.0)
  end
  begin
     id 8 
     name rtibia
     direction -0.34202 -0.939693 0   
     length 6.70662   
     axis 0 0 -20   XYZ
    dof rx
    limits (-10.0 170.0)
 end
 begin
     id 9 
     name rfoot
     direction -0.11854 -0.325686 0.938018   
     length 2.0773  
     axis -90 -7.62852e-016 -20   XYZ
    dof rx rz
    limits (-45.0 90.0)
           (-20.0 70.0)
  end
  begin
     id 10 
     name rtoes
     direction -1.53547e-011 -4.21838e-011 1   
     length 1.03267   
     axis -90 -7.62852e-016 -20   XYZ
    dof rx
    limits (-90.0 20.0)
  end
  begin
     id 11 
     name lowerback
     direction -0.0286554 0.999539 0.0100613   
     length 2.08751   
     axis 0 0 0   XYZ
    dof rx ry rz
    limits (-20.0 45.0)
           (-30.0 30.0)
           (-30.0 30.0)
  end
  begin
     id 12 
     name upperback
     direction 0.0227093 0.999705 -0.00860929   
     length 2.08517   
     axis 0 0 0   XYZ
    dof rx ry rz
    limits (-20.0 45.0)
           (-30.0 30.0)
           (-30.0 30.0)
  end
  begin
     id 13 
     name thorax
     direction 0.0351627 0.999285 -0.013892   
     length 2.08412   
     axis 0 0 0   XYZ
    dof rx ry rz
    limits (-20.0 45.0)
           (-30.0 30.0)
           (-30.0 30.0)
  end
  begin
     id 14 
     name lowerneck
     direction -0.0696283 0.997344 0.0213922   
     length 1.44164   
     axis 0 0 0   XYZ
    dof rx ry rz
    limits (-20.0 45.0)
           (-30.0 30.0)
           (-30.0 30.0)
  end
  begin
     id 15 
     name upperneck
     direction 0.0531 0.990412 -0.127531   
     length 1.45022   
     axis 0 0 0   XYZ
    dof rx ry rz
    limits (-20.0 45.0)
           (-30.0 30.0)
           (-30.0 30.0)
  end
  begin
     id 16
     name head
     direction 0.0188154 0.998548 -0.0504727  
     length 1.45845  
     axis 0 0 0   XYZ
    dof rx ry rz
    limits (-20.0 45.0)
           (-30.0 30.0)
           (-30.0 30.0)
  end
  begin
     id 17 
     name lclavicle
     direction 0.961559 0.260051 0.088188  
     length 2.86057  
     axis 0 0 0   XYZ
    dof ry rz
    limits (-20.0 10.0)
           (0.0 20.0)
  end
  begin
     id 18 
     name lhumerus
     direction 1 -4.48959e-011 2.88185e-027   
     length 4.36901   
     axis 180 -30 -90   XYZ
    dof rx ry rz
    limits (-60.0 90.0)
           (-90.0 90.0)
           (-90.0 90.0)
  end
  begin
     id 19
     name lradius
     direction 1 -4.48965e-011 -3.92618e-028   
     length 3.21737   
     axis 180 -30 -90   XYZ
    dof rx
    limits (-10.0 170.0)
  end
  begin
     id 20
     name lwrist
     direction 1 -4.49037e-011 2.57246e-027   
     length 1.60869   
     axis -1.61769e-015 90 90   XYZ
    dof ry
    limits (-180.0 0.0)
 end
  begin
     id 21 
     name lhand
     direction 1 -4.48807e-011 5.12958e-027   
     length 0.564313   
     axis -3.27988e-015 90 90   XYZ
    dof rx rz
    limits (-90.0 90.0)
           (-45.0 45.0)
  end
  begin
     id 22 
     name lfingers
     direction 1 -4.48879e-011 1.02687e-026   
     length 0.454963   
     axis -6.5598e-015 90 90   XYZ
    dof rx
    limits (0.0 90.0)
  end
  begin
     id 23
     name lthumb
     direction 0.707107 -6.3475e-011 0.707107   
     length 0.653239   
     axis -90 45 2.19363e-014   XYZ
    dof rx rz
    limits (-45.0 45.0)
           (-45.0 45.0)
  end
  begin
     id 24 
     name rclavicle
     direction -0.954677 0.253915 0.155304   
     length 3.11497  
     axis 0 0 0   XYZ 
    dof ry rz
    limits (-10.0 20.0)
           (-20.0 0.0)
  end
  begin
     id 25 
     name rhumerus
     direction -1 -4.48958e-011 -8.20169e-028  
     length 4.34118   
     axis 180 30 90   XYZ
    dof rx ry rz
    limits (-90.0 60.0)
           (-90.0 90.0)
           (-90.0 90.0)
  end
  begin
     id 26 
     name rradius
     direction -1 -4.48978e-011 1.5676e-027   
     length 3.09531   
     axis 180 30 90   XYZ
    dof rx
    limits (-10.0 170.0)
  end
  begin
     id 27 
     name rwrist
     direction -1 -4.49001e-011 2.57123e-027   
     length 1.54765   
     axis -1.61769e-015 -90 -90   XYZ
    dof ry
    limits (-180.0 0.0)
  end
  begin
     id 28
     name rhand
     direction -1 -4.48847e-011 5.13225e-027   
     length 0.597446   
     axis -3.27988e-015 -90 -90   XYZ
    dof rx rz
    limits (-90.0 90.0)
           (-45.0 45.0)
  end
  begin
     id 29
     name rfingers
     direction -1 -4.49094e-011 1.02974e-026   
     length 0.481677   
     axis -6.5598e-015 -90 -90   XYZ
    dof rx
    limits (0.0 90.0)
  end
  begin
     id 30
     name rthumb
     direction -0.707107 -6.34859e-011 0.707107   
     length 0.691594   
     axis -90 -45 -2.19363e-014   XYZ
    dof rx rz
    limits (-45.0 45.0)
           (-45.0 45.0)
  end
:hierarchy
  begin
    root lhipjoint rhipjoint lowerback
    lhipjoint lfemur
    lfemur ltibia
    ltibia lfoot
    lfoot ltoes
    rhipjoint rfemur
    rfemur rtibia
    rtibia rfoot
    rfoot rtoes
    lowerback upperback
    upperback thorax
    thorax lowerneck lclavicle rclavicle
    lowerneck upperneck
    upperneck head
    lclavicle lhumerus
    lhumerus lradius
    lradius lwrist
    lwrist lhand lthumb
    lhand lfingers
    rclavicle rhumerus
    rhumerus rradius
    rradius rwrist
    rwrist rhand rthumb
    rhand rfingers
  end

#!OML:ASF I:\Acrobat_Osman\acrobat\cartwheel_test 2\Patient 1\Session 1\acrobat.ASF
:FULLY-SPECIFIED
:DEGREES
571
root 6.77542 6.89077 -8.38585 2.8235 1.3143 0.354294
lowerback 31.7236 1.46971 -3.32459
upperback 5.6414 1.07745 2.43051
thorax -10.3053 0.602846 3.97676
lowerneck -7.35382 -4.42354 -6.08205
upperneck -9.4136 -5.23343 6.62042
head -1.38145 -2.52229 3.12945
rclavicle 6.16232e-015 -7.15625e-015
rhumerus -22.4718 -5.13396 -36.4319
rradius 42.5813
rwrist -4.58968
rhand -25.4367 33.4604
rfingers 7.12502
rthumb 1.08981 3.48346
lclavicle 6.16232e-015 -7.15625e-015
lhumerus -32.6082 1.25166 46.9156
lradius 56.4307
lwrist 26.1438
lhand -16.7484 51.0287
lfingers 7.12502
lthumb 9.47816 440.796
rfemur -159.145 -80.3751 78.9687
rtibia 151.149
rfoot -43.7083 36.7375
rtoes -26.3076
lfemur -202.815 79.339 -118.33
ltibia 149.482
lfoot -51.7453 -37.1435
ltoes -30.4758
572
root 6.78672 6.82097 -8.39298 2.61832 1.60954 0.40679
lowerback 31.9083 1.38398 -3.26463
upperback 5.47783 0.990676 2.46956
thorax -10.5557 0.569436 4.01837
lowerneck -7.17632 -4.47696 -6.0363
upperneck -9.86764 -5.31375 6.43562
head -1.56191 -2.56385 3.07209
rclavicle -3.57812e-015 0
rhumerus -23.04 -5.61431 -36.8784
rradius 41.6487
rwrist -3.15517
rhand -24.78 33.9098
rfingers 7.12502
rthumb 1.72404 3.93699
lclavicle -3.57812e-015 0
lhumerus -33.1082 0.98207 48.1084
lradius 54.926
lwrist 25.2358
lhand -15.7563 52.4086
lfingers 7.12502
lthumb 10.4352 442.13
rfemur -167.76 -81.2655 85.9666
rtibia 151.235
rfoot -43.0576 40.1791
rtoes -26.2658
lfemur -208.867 78.9838 -123.374
ltibia 149.478
lfoot -52.6091 -40.4299
ltoes -30.2457
573
root 6.79058 6.76773 -8.38838 2.22512 2.02958 0.419972
lowerback 32.0306 1.26304 -3.16052
upperback 5.38249 0.875856 2.50472
thorax -10.7018 0.519009 4.04307
lowerneck -6.98106 -4.56121 -6.11241
upperneck -10.1704 -5.42685 6.3991
head -1.68695 -2.6194 3.08464
rclavicle 3.37934e-015 6.75868e-015
rhumerus -23.7093 -6.24835 -37.3005
rradius 40.7082
rwrist -1.9548
rhand -24.0368 34.1617
rfingers 7.12502
rthumb 2.44183 4.19593
lclavicle 3.37934e-015 6.75868e-015
lhumerus -33.4406 0.751456 49.1914
lradius 53.112
lwrist 24.3745
lhand -16.3676 51.1975
lfingers 7.12502
lthumb 9.84556 440.947
rfemur -186.111 -82.4409 103.022
rtibia 151.267
rfoot -43.5095 43.8586
rtoes -26.3004
lfemur -213.796 79.0586 -127.333
ltibia 149.365
lfoot -53.6739 -43.4879
ltoes -30.0368
574
root 6.8038 6.65075 -8.36887 1.98556 2.30752 0.327722
lowerback 31.7265 1.17829 -2.9579
upperback 5.31674 0.851136 2.55237
thorax -10.6485 0.503546 3.99604
lowerneck -7.08018 -4.641 -6.24506
upperneck -10.0888 -5.52145 6.4182
head -1.63288 -2.6606 3.10821
rclavicle -1.61016e-014 -3.97569e-015
rhumerus -24.437 -7.12785 -37.5808
rradius 39.9651
rwrist -1.4123
rhand -22.9382 33.9316
rfingers 7.12502
rthumb 3.50276 3.98062
lclavicle -1.61016e-014 -3.97569e-015
lhumerus -33.6881 0.642738 50.2492
lradius 51.1267
lwrist 23.2776
lhand -17.1714 49.4322
lfingers 7.12502
lthumb 9.06995 439.217
rfemur -199.89 -82.9204 114.421
rtibia 151.786
rfoot -43.3391 47.4468
rtoes -27.3898
lfemur -218.034 79.086 -129.421
ltibia 149.901
lfoot -54.3393 -46.4706
ltoes -30.2067
575
root 6.81895 6.6356 -8.35586 2.03668 2.40304 0.295702
lowerback 31.0572 1.17653 -2.80794
upperback 5.12319 0.922388 2.60772
thorax -10.5942 0.536813 3.95284
lowerneck -6.91836 -4.69106 -6.36881
upperneck -10.0087 -5.59579 6.35539
head -1.62802 -2.69408 3.11056
rclavicle 1.39149e-015 -1.23246e-014
rhumerus -25.2734 -8.07614 -37.5974
rradius 39.3994
rwrist -1.41674
rhand -21.464 33.3209
rfingers 7.12502
rthumb 4.92629 3.39812
lclavicle 1.39149e-015 -1.23246e-014
lhumerus -34.1151 0.595211 51.2915
lradius 49.2659
lwrist 22.2118
lhand -16.5321 47.8802
lfingers 7.12502
lthumb 9.68684 437.637
rfemur -192.712 -83.3677 106.07
rtibia 151.499
rfoot -42.1817 49.3006
rtoes -29.4892
lfemur -220.166 78.7435 -131.076
ltibia 149.791
lfoot -54.821 -47.9356
ltoes -30.6523
576
root 6.83057 6.64232 -8.3365 1.97341 2.61222 0.399336
lowerback 30.1889 1.10949 -2.67915
upperback 5.36994 0.89082 2.39185
thorax -10.6416 0.548387 3.94932
lowerneck -6.74238 -4.74188 -6.34498
upperneck -9.98964 -5.67609 6.32617
head -1.64797 -2.7363 3.09917
rclavicle 5.96354e-015 -1.11319e-014
rhumerus -26.1994 -9.14888 -37.7539
rradius 38.8349
rwrist -1.23935
rhand -21.0738 32.6991
rfingers 7.12502
rthumb 5.30313 2.78542
lclavicle 5.96354e-015 -1.11319e-014
lhumerus -34.4832 0.756772 52.0213
lradius 47.585
lwrist 21.4739
lhand -17.2637 48.4137
lfingers 7.12502
lthumb 8.98085 438.203
rfemur -187.425 -83.9543 99.7319
rtibia 151.174
rfoot -40.8302 51.0857
rtoes -30.4695
lfemur -220.695 78.9084 -131.644
ltibia 149.537
lfoot -54.6569 -49.395
ltoes -30.4145
577
root 6.83652 6.66495 -8.3072 1.67178 2.88477 0.488917
lowerback 29.6599 1.05251 -2.67804
upperback 5.23639 0.83 2.38559
thorax -10.5274 0.521095 3.96081
lowerneck -6.7276 -4.80818 -6.36236
upperneck -9.66743 -5.77588 6.25644
head -1.53933 -2.78493 3.06803
rclavicle -9.14409e-015 -2.78299e-015
rhumerus -27.2154 -10.0352 -37.9044
rradius 38.185
rwrist -0.687098
rhand -21.848 32.4651
rfingers 7.12502
rthumb 4.55554 2.53406
lclavicle -9.14409e-015 -2.78299e-015
lhumerus -35.0179 1.13543 52.6825
lradius 46.1579
lwrist 21.3136
lhand -17.7479 48.5318
lfingers 7.12502
lthumb 8.51367 438.34
rfemur -190.113 -84.948 101.818
rtibia 150.816
rfoot -39.7125 53.0603
rtoes -30.2396
lfemur -220.808 79.8146 -131.793
ltibia 149.114
lfoot -52.6825 -52.7827
ltoes -27.4759
578
root 6.8416 6.70038 -8.26908 1.36078 3.08177 0.534891
lowerback 28.9828 1.02109 -2.72626
upperback 5.1126 0.794528 2.42464
thorax -10.3291 0.505862 4.04125
lowerneck -6.72049 -4.87233 -6.40198
upperneck -9.172 -5.87611 6.17186
head -1.373 -2.83346 3.03142
rclavicle 3.97569e-016 4.77083e-015
rhumerus -28.1928 -11.0181 -37.9683
rradius 37.3477
rwrist 0.258957
rhand -23.1724 32.7107
rfingers 7.12502
rthumb 3.27661 2.75618
lclavicle 3.97569e-016 4.77083e-015
lhumerus -35.6684 1.80655 53.2663
lradius 45.024
lwrist 21.7854
lhand -18.2777 48.5729
lfingers 7.12502
lthumb 8.00232 438.401
rfemur -189.131 -86.0279 100.511
rtibia 150.385
rfoot -38.3728 54.7831
rtoes -30.1516
lfemur -221.742 80.8373 -132.765
ltibia 148.694
lfoot -51.1392 -55.3469
ltoes -25.5619
579
root 6.8451 6.74702 -8.2261 1.25234 3.3498 0.488092
lowerback 27.9966 0.923398 -2.69344
upperback 4.96805 0.707117 2.49134
thorax -9.9902 0.46167 4.12045
lowerneck -6.79279 -4.904 -6.51174
upperneck -8.61801 -5.91891 6.21715
head -1.17251 -2.85198 3.04999
rclavicle -1.64991e-014 7.95139e-015
rhumerus -29.1061 -12.2058 -37.9981
rradius 36.8528
rwrist 0.442219
rhand -24.4182 32.7633
rfingers 7.12502
rthumb 2.07351 2.79359
lclavicle -1.64991e-014 7.95139e-015
lhumerus -36.3857 2.89035 53.6152
lradius 44.1661
lwrist 22.4092
lhand -18.0793 48.699
lfingers 7.12502
lthumb 8.19384 438.52
rfemur -178.583 -86.8948 89.8567
rtibia 149.875
rfoot -35.7762 56.5265
rtoes -29.5476
lfemur -219.838 81.8445 -130.894
ltibia 148.324
lfoot -51.0922 -55.7082
ltoes -26.7948
580
root 6.85086 6.80189 -8.1773 1.07594 3.72592 0.419023
lowerback 27.0005 0.783947 -2.59688
upperback 4.85628 0.583076 2.56619
thorax -9.60002 0.396575 4.18131
lowerneck -6.82122 -4.93928 -6.68543
upperneck -8.14493 -5.95976 6.35921
head -1.00135 -2.86908 3.11734
rclavicle -8.15017e-015 2.14687e-014
rhumerus -30.0512 -13.4772 -37.97
rradius 36.7419
rwrist -0.308576
rhand -25.0672 32.5383
rfingers 7.12502
rthumb 1.4467 2.56345
lclavicle -8.15017e-015 2.14687e-014
lhumerus -37.1055 4.05053 53.8489
lradius 43.5499
lwrist 23.2487
lhand -17.6725 49.0571
lfingers 7.12502
lthumb 8.58644 438.863
rfemur -160.145 -87.7842 71.5058
rtibia 149.278
rfoot -33.466 58.0635
rtoes -29.396
lfemur -214.619 83.1406 -125.862
ltibia 147.87
lfoot -49.0674 -57.1819
ltoes -25.6954
581
root 6.85965 6.85888 -8.12603 0.898361 4.12535 0.469231
lowerback 26.0344 0.677073 -2.56121
upperback 4.69956 0.475736 2.5928
thorax -9.27285 0.342009 4.2154
lowerneck -6.67301 -5.02049 -6.70153
upperneck -7.71172 -6.08741 6.35888
head -0.87691 -2.9352 3.11105
rclavicle 1.43125e-014 2.38542e-015
rhumerus -31.0775 -14.6624 -37.8627
rradius 36.5683
rwrist -1.16131
rhand -25.3135 32.1416
rfingers 7.12502
rthumb 1.20875 2.16532
lclavicle 1.43125e-014 2.38542e-015
lhumerus -37.8119 5.07589 54.1041
lradius 43.0302
lwrist 24.2341
lhand -17.8797 49.6892
lfingers 7.12502
lthumb 8.38648 439.503
rfemur -126.321 -88.2691 37.6496
rtibia 148.692
rfoot -32.0706 59.1542
rtoes -30.2706
lfemur -206.758 84.518 -118.412
ltibia 147.379
lfoot -45.7459 -59.3589
ltoes -22.7432
